<svg xmlns="http://www.w3.org/2000/svg" xmlns:xlink="http://www.w3.org/1999/xlink" zoomAndPan="magnify" preserveAspectRatio="xMidYMid meet" version="1.0" viewBox="58.8 152.48 260.38 69.44"><defs><g/></defs><g fill="#ff914d" fill-opacity="1"><g transform="translate(57.983783, 200.070268)"><g><path d="M 118.1875 -1.78125 C 112.644531 -1.78125 109.585938 -4.445312 109.015625 -9.78125 C 94.890625 -2.582031 76.628906 1.015625 54.234375 1.015625 C 41.222656 1.015625 31.253906 0.488281 24.328125 -0.5625 C 8.648438 -2.882812 0.8125 -7.664062 0.8125 -14.90625 C 0.8125 -21.863281 8.5 -27.113281 23.875 -30.65625 C 34.144531 -33.019531 44.144531 -34.203125 53.875 -34.203125 C 62.789062 -34.203125 69.007812 -33.664062 72.53125 -32.59375 C 79.550781 -30.5 83.0625 -25.988281 83.0625 -19.0625 C 83.0625 -15.175781 81.140625 -9.125 77.296875 -0.90625 C 75.910156 2.03125 72.648438 8.296875 67.515625 17.890625 C 66.085938 20.523438 65.003906 21.84375 64.265625 21.84375 C 63.960938 21.84375 63.8125 21.554688 63.8125 20.984375 C 63.8125 20.035156 64.21875 18.664062 65.03125 16.875 C 73 -0.726562 76.984375 -12.707031 76.984375 -19.0625 C 76.984375 -25.132812 71.101562 -28.171875 59.34375 -28.171875 C 58.601562 -28.171875 57.609375 -28.171875 56.359375 -28.171875 C 55.140625 -28.140625 54.3125 -28.125 53.875 -28.125 C 47.1875 -28.125 38.671875 -27.179688 28.328125 -25.296875 C 14.035156 -22.660156 6.890625 -19.265625 6.890625 -15.109375 C 6.890625 -10.984375 14.207031 -8.09375 28.84375 -6.4375 C 36.707031 -5.519531 45.171875 -5.0625 54.234375 -5.0625 C 65.859375 -5.0625 76.582031 -6.160156 86.40625 -8.359375 C 96.101562 -10.523438 103.878906 -13.5 109.734375 -17.28125 C 110.773438 -17.988281 111.617188 -18.34375 112.265625 -18.34375 C 113.171875 -18.34375 113.742188 -17.429688 113.984375 -15.609375 C 114.390625 -12.503906 114.625 -10.832031 114.6875 -10.59375 C 115.269531 -8.769531 116.4375 -7.859375 118.1875 -7.859375 C 120.21875 -7.859375 121.234375 -6.84375 121.234375 -4.8125 C 121.234375 -2.789062 120.21875 -1.78125 118.1875 -1.78125 Z M 103.59375 -41.703125 C 100.757812 -40.492188 97.347656 -39.890625 93.359375 -39.890625 C 89.742188 -39.890625 87.9375 -40.648438 87.9375 -42.171875 C 87.9375 -43.242188 89.472656 -44.019531 92.546875 -44.5 C 94.640625 -44.800781 97.53125 -45.726562 101.21875 -47.28125 C 101.65625 -47.488281 102.09375 -47.59375 102.53125 -47.59375 C 104.488281 -47.59375 105.46875 -46.523438 105.46875 -44.390625 C 105.46875 -43.109375 104.84375 -42.210938 103.59375 -41.703125 Z M 103.59375 -41.703125 "/></g></g></g><g fill="#ff914d" fill-opacity="1"><g transform="translate(177.283478, 200.070268)"><g><path d="M 22.140625 -1.78125 C 17.859375 -1.78125 14.769531 -3.28125 12.875 -6.28125 C 8.6875 -3.28125 4.394531 -1.78125 0 -1.78125 C -2.03125 -1.78125 -3.046875 -2.789062 -3.046875 -4.8125 C -3.046875 -6.84375 -2.03125 -7.859375 0 -7.859375 C 4.59375 -7.859375 8.882812 -10.035156 12.875 -14.390625 C 13.6875 -15.304688 14.582031 -15.765625 15.5625 -15.765625 C 17.351562 -15.765625 18.25 -14.800781 18.25 -12.875 C 18.25 -12.570312 18.179688 -12.191406 18.046875 -11.734375 C 17.910156 -11.273438 17.84375 -10.925781 17.84375 -10.6875 C 17.84375 -8.800781 19.273438 -7.859375 22.140625 -7.859375 C 24.171875 -7.859375 25.1875 -6.84375 25.1875 -4.8125 C 25.1875 -2.789062 24.171875 -1.78125 22.140625 -1.78125 Z M 19.15625 14.5 C 16.320312 15.707031 12.910156 16.3125 8.921875 16.3125 C 5.304688 16.3125 3.5 15.550781 3.5 14.03125 C 3.5 12.957031 5.035156 12.179688 8.109375 11.703125 C 10.203125 11.398438 13.09375 10.472656 16.78125 8.921875 C 17.21875 8.710938 17.65625 8.609375 18.09375 8.609375 C 20.050781 8.609375 21.03125 9.675781 21.03125 11.8125 C 21.03125 13.09375 20.40625 13.988281 19.15625 14.5 Z M 19.15625 14.5 "/></g></g></g><g fill="#ff914d" fill-opacity="1"><g transform="translate(196.338994, 200.070268)"><g><path d="M 18.796875 -14.09375 C 18.796875 -10.375 16.484375 -7.296875 11.859375 -4.859375 C 7.972656 -2.804688 4.019531 -1.78125 0 -1.78125 C -2.03125 -1.78125 -3.046875 -2.789062 -3.046875 -4.8125 C -3.046875 -6.84375 -2.03125 -7.859375 0 -7.859375 C 2.03125 -7.859375 4.515625 -8.429688 7.453125 -9.578125 C 10.960938 -10.929688 12.71875 -12.4375 12.71875 -14.09375 C 12.71875 -16.6875 12.265625 -18.898438 11.359375 -20.734375 C 11.085938 -21.234375 10.953125 -21.722656 10.953125 -22.203125 C 10.953125 -23.046875 11.28125 -23.753906 11.9375 -24.328125 C 12.59375 -24.898438 13.328125 -25.1875 14.140625 -25.1875 C 15.328125 -25.1875 16.207031 -24.613281 16.78125 -23.46875 C 18.125 -20.757812 18.796875 -17.632812 18.796875 -14.09375 Z M 18.390625 6.9375 L 16.671875 9.734375 C 16.066406 10.710938 15.238281 11.203125 14.1875 11.203125 C 13.34375 11.203125 12.597656 10.90625 11.953125 10.3125 C 11.316406 9.71875 11 9 11 8.15625 C 11 7.613281 11.164062 7.054688 11.5 6.484375 L 13.21875 3.703125 C 13.832031 2.722656 14.660156 2.234375 15.703125 2.234375 C 16.546875 2.234375 17.289062 2.523438 17.9375 3.109375 C 18.582031 3.703125 18.90625 4.421875 18.90625 5.265625 C 18.90625 5.804688 18.734375 6.363281 18.390625 6.9375 Z M 18.390625 6.9375 "/></g></g></g><g fill="#0cc0df" fill-opacity="1"><g transform="translate(216.453985, 200.070268)"><g><path d="M 35.375 -4.859375 C 35.375 -2.867188 34.378906 -1.875 32.390625 -1.875 L 29.25 -1.875 C 27.25 -1.875 26.25 -2.867188 26.25 -4.859375 C 26.25 -6.828125 27.25 -7.8125 29.25 -7.8125 L 32.390625 -7.8125 C 34.378906 -7.8125 35.375 -6.828125 35.375 -4.859375 Z M 28.734375 -7.90625 C 29.679688 -5.707031 30.15625 -3.695312 30.15625 -1.875 C 30.15625 4.613281 25.035156 9.664062 14.796875 13.28125 C 8.484375 15.507812 2.300781 16.625 -3.75 16.625 C -5.46875 16.625 -6.972656 16.421875 -8.265625 16.015625 C -9.546875 15.609375 -10.1875 15.171875 -10.1875 14.703125 C -10.1875 13.816406 -9.054688 13.171875 -6.796875 12.765625 C 1.046875 11.285156 6.503906 9.988281 9.578125 8.875 C 19.335938 5.351562 24.21875 2.242188 24.21875 -0.453125 C 24.21875 -1.296875 23.816406 -1.71875 23.015625 -1.71875 C 17.835938 -1.71875 15.25 -3.035156 15.25 -5.671875 C 15.25 -7.535156 15.960938 -9.273438 17.390625 -10.890625 C 18.835938 -12.515625 20.59375 -13.328125 22.65625 -13.328125 C 25.082031 -13.328125 27.109375 -11.519531 28.734375 -7.90625 Z M 28.734375 -7.90625 "/></g></g></g><g fill="#0cc0df" fill-opacity="1"><g transform="translate(249.04096, 200.070268)"><g><path d="M 25.296875 -27.578125 C 28.597656 -26.359375 30.910156 -23.179688 32.234375 -18.046875 C 32.503906 -11.085938 33.078125 -7.609375 33.953125 -7.609375 L 34.15625 -7.609375 C 35.644531 -7.742188 36.8125 -7.8125 37.65625 -7.8125 L 37.859375 -7.8125 C 38.160156 -7.769531 38.3125 -7.632812 38.3125 -7.40625 L 38.3125 -2.578125 C 38.3125 -2.210938 36.503906 -1.925781 32.890625 -1.71875 C 29.378906 -2.425781 27.625 -4.097656 27.625 -6.734375 C 27.65625 -7.617188 27.671875 -8.46875 27.671875 -9.28125 C 27.671875 -16.78125 25.847656 -20.679688 22.203125 -20.984375 C 21.628906 -21.015625 21.085938 -21.03125 20.578125 -21.03125 C 17.265625 -21.03125 14.613281 -20.117188 12.625 -18.296875 C 11.875 -17.515625 11.5 -16.851562 11.5 -16.3125 C 11.5 -15.914062 12.597656 -14.90625 14.796875 -13.28125 C 14.796875 -13.207031 15.015625 -12.476562 15.453125 -11.09375 C 15.453125 -7.445312 13.710938 -4.660156 10.234375 -2.734375 C 8.785156 -2.429688 5.375 -2.144531 0 -1.875 L -0.203125 -2.28125 L -0.203125 -7.296875 C -0.171875 -7.460938 0.03125 -7.546875 0.40625 -7.546875 C 0.738281 -7.546875 1.175781 -7.5 1.71875 -7.40625 C 1.820312 -7.363281 1.925781 -7.34375 2.03125 -7.34375 C 2.769531 -7.34375 3.140625 -7.898438 3.140625 -9.015625 C 3.140625 -9.359375 3.109375 -9.765625 3.046875 -10.234375 C 3.046875 -15.742188 7.179688 -21.1875 15.453125 -26.5625 C 17.410156 -27.707031 19.40625 -28.28125 21.4375 -28.28125 C 22.71875 -28.28125 24.003906 -28.046875 25.296875 -27.578125 Z M 25.296875 -27.578125 "/></g></g></g><g fill="#0cc0df" fill-opacity="1"><g transform="translate(286.847914, 200.070268)"><g><path d="M 18.796875 -14.09375 C 18.796875 -10.375 16.484375 -7.296875 11.859375 -4.859375 C 7.972656 -2.804688 4.019531 -1.78125 0 -1.78125 C -2.03125 -1.78125 -3.046875 -2.789062 -3.046875 -4.8125 C -3.046875 -6.84375 -2.03125 -7.859375 0 -7.859375 C 2.03125 -7.859375 4.515625 -8.429688 7.453125 -9.578125 C 10.960938 -10.929688 12.71875 -12.4375 12.71875 -14.09375 C 12.71875 -16.6875 12.265625 -18.898438 11.359375 -20.734375 C 11.085938 -21.234375 10.953125 -21.722656 10.953125 -22.203125 C 10.953125 -23.046875 11.28125 -23.753906 11.9375 -24.328125 C 12.59375 -24.898438 13.328125 -25.1875 14.140625 -25.1875 C 15.328125 -25.1875 16.207031 -24.613281 16.78125 -23.46875 C 18.125 -20.757812 18.796875 -17.632812 18.796875 -14.09375 Z M 14.84375 9.84375 C 12.007812 11.050781 8.597656 11.65625 4.609375 11.65625 C 0.992188 11.65625 -0.8125 10.894531 -0.8125 9.375 C -0.8125 8.300781 0.722656 7.523438 3.796875 7.046875 C 5.890625 6.742188 8.78125 5.816406 12.46875 4.265625 C 12.90625 4.054688 13.34375 3.953125 13.78125 3.953125 C 15.738281 3.953125 16.71875 5.019531 16.71875 7.15625 C 16.71875 8.4375 16.09375 9.332031 14.84375 9.84375 Z M 14.84375 9.84375 "/></g></g></g><g fill="#0cc0df" fill-opacity="1"><g transform="translate(306.460921, 200.070268)"><g><path d="M 12.625 -14.390625 C 12.6875 -13.648438 12.71875 -12.925781 12.71875 -12.21875 C 12.71875 -7.71875 11.992188 -5.46875 10.546875 -5.46875 C 9.460938 -5.46875 8.566406 -7.207031 7.859375 -10.6875 C 7.484375 -12.550781 6.90625 -16.828125 6.125 -23.515625 C 5.625 -27.910156 5.050781 -33.453125 4.40625 -40.140625 L 4.40625 -40.5 C 4.40625 -42.019531 4.796875 -43.300781 5.578125 -44.34375 C 6.316406 -45.363281 7.160156 -45.875 8.109375 -45.875 C 9.253906 -45.875 9.894531 -45.113281 10.03125 -43.59375 C 10.675781 -36.757812 11.539062 -27.023438 12.625 -14.390625 Z M 12.625 -14.390625 "/></g></g></g></svg>